<?xml version="1.0" encoding="utf-8"?>
<svg viewBox="11.223 66.78 438.833 185.186" xmlns="http://www.w3.org/2000/svg" xmlns:bx="https://boxy-svg.com">
  <path style="fill: rgb(219, 163, 98); paint-order: fill; stroke: rgb(143, 104, 76);" d="M 99.32666666666667 225.52633333333333 C 81.93033333333334 230.01566666666668 47.13766666666667 238.99433333333334 30.1155 240.95850000000004 C 13.093333333333334 242.9226666666667 13.841666666666667 237.87233333333333 35.633833333333335 206.91466666666668 C 57.42600000000001 175.957 100.262 119.092 121.77350000000001 93.18466666666667 C 143.285 67.27733333333333 143.472 72.32766666666667 142.53666666666666 97.1125 C 141.60133333333332 121.89733333333334 139.54366666666667 166.41666666666666 135.05433333333332 190.35983333333334 C 130.565 214.303 123.644 217.67 120.18349999999998 219.35350000000003 C 116.723 221.037 116.723 221.037 116.723 221.037 C 116.723 221.037 116.723 221.037 99.32666666666667 225.52633333333333" bx:d="M 116.723 221.037 U 12.345 247.973 U 14.59 232.822 U 143.098 62.227 U 143.659 77.378 U 137.486 210.936 U 116.723 221.037 U 116.723 221.037 Z 1@edb6d45e"/>
  <rect x="27.497" y="227.21" width="301.908" height="11.785" rx="5" ry="5" style="fill: rgb(219, 163, 98); stroke: rgb(143, 104, 76);"/>
  <rect x="134.68" y="81.026" width="301.908" height="11.785" rx="5" ry="5" style="fill: rgb(219, 163, 98); stroke: rgb(143, 104, 76);"/>
  <rect x="120.09" y="204.483" width="301.908" height="11.785" rx="5" ry="5" style="fill: rgb(219, 163, 98); stroke: rgb(143, 104, 76);"/>
  <rect x="95.398" y="136.863" width="303.03" height="7.856" rx="5" ry="5" style="fill: rgb(216, 216, 216); stroke: rgb(0, 0, 0);"/>
  <rect x="60.045" y="180.073" width="303.03" height="7.856" rx="5" ry="5" style="fill: rgb(216, 216, 216); stroke: rgb(0, 0, 0);"/>
  <path style="stroke: rgb(143, 104, 76); fill: rgb(219, 163, 98);" d="M 399.2776666666666 228.98033333333333 C 381.8813333333333 233.46966666666665 347.0886666666667 242.44833333333335 330.06649999999996 244.41250000000002 C 313.0443333333333 246.37666666666667 313.79266666666666 241.32633333333334 335.58483333333334 210.36866666666666 C 357.37699999999995 179.41100000000003 400.21299999999997 122.546 421.72450000000003 96.63866666666667 C 443.23600000000005 70.73133333333332 443.423 75.78166666666665 442.48766666666666 100.56649999999998 C 441.55233333333337 125.35133333333333 439.49466666666666 169.87066666666666 435.00533333333334 193.81383333333335 C 430.516 217.75699999999998 423.59499999999997 221.12400000000002 420.13449999999995 222.8075 C 416.674 224.491 416.674 224.491 416.674 224.491 C 416.674 224.491 416.674 224.491 399.2776666666666 228.98033333333333" bx:d="M 416.674 224.491 U 312.296 251.427 U 314.541 236.276 U 443.049 65.681 U 443.61 80.832 U 437.437 214.39 U 416.674 224.491 U 416.674 224.491 Z 1@7690e642"/>
</svg>